<svg width="15" height="15" viewBox="0 0 15 15" fill="none" xmlns="http://www.w3.org/2000/svg">
<path d="M13.6695 1.62712C13.6377 1.62587 13.6058 1.62566 13.574 1.62653H12.3742V0.632541C12.3742 0.234946 11.9805 0 11.5681 0H10.462C10.0496 0 9.74964 0.234946 9.74964 0.632541V1.62649H5.25034V0.632541C5.25034 0.234946 4.95039 0 4.53795 0H3.43186C3.01945 0 2.62575 0.234946 2.62575 0.632541V1.62649H1.42596C0.660075 1.60591 0.0218953 2.18778 0.000544959 2.92606C-0.000352116 2.95671 -0.000136811 2.98743 0.00115498 3.01808V13.4639C0.00115498 14.259 0.601047 15 1.42593 15H13.574C14.3989 15 14.9988 14.259 14.9988 13.4639V3.01808C15.0302 2.2801 14.435 1.65735 13.6695 1.62712ZM10.462 0.722894H11.6243V2.71084H10.462V0.722894ZM3.43189 0.722894H4.50049V2.71084H3.43189V0.722894ZM14.2489 13.4639C14.2489 13.8615 13.9865 14.2771 13.574 14.2771H1.42596C1.01352 14.2771 0.751074 13.8615 0.751074 13.4639V5.78315H14.2489V13.4639ZM14.2489 3.01808V5.06026H0.751038V3.01808C0.719282 2.68012 0.977747 2.38132 1.32832 2.3507C1.36076 2.34787 1.39342 2.34745 1.42593 2.34942H2.62575V2.74702C2.62575 3.14461 3.01942 3.43376 3.43186 3.43376H4.53795C4.92089 3.4439 5.23982 3.15281 5.25034 2.78365C5.25069 2.77144 5.25069 2.75923 5.25034 2.74702V2.34939H9.74964V2.74698C9.73912 3.11614 10.0411 3.42359 10.424 3.43373C10.4367 3.43408 10.4494 3.43408 10.462 3.43373H11.5681C11.9806 3.43373 12.3742 3.14458 12.3742 2.74698V2.34939H13.574C13.9254 2.32805 14.2281 2.5853 14.2503 2.92399C14.2523 2.95533 14.2519 2.98681 14.2489 3.01808Z" fill="#327E8C"/>
<ellipse cx="3.95452" cy="8.12957" rx="0.681818" ry="0.657279" fill="#327E8C"/>
<ellipse cx="6.40911" cy="8.12957" rx="0.681818" ry="0.657279" fill="#327E8C"/>
<ellipse cx="8.8637" cy="8.12957" rx="0.681818" ry="0.657279" fill="#327E8C"/>
<ellipse cx="11.3183" cy="8.12957" rx="0.681818" ry="0.657279" fill="#327E8C"/>
<ellipse cx="3.95452" cy="10.4958" rx="0.681818" ry="0.657279" fill="#327E8C"/>
<ellipse cx="6.40911" cy="10.4958" rx="0.681818" ry="0.657279" fill="#327E8C"/>
<ellipse cx="8.8637" cy="10.4958" rx="0.681818" ry="0.657279" fill="#327E8C"/>
<ellipse cx="11.3183" cy="10.4958" rx="0.681818" ry="0.657279" fill="#327E8C"/>
</svg>
