<svg width="88" height="36" viewBox="0 0 88 36" fill="none" xmlns="http://www.w3.org/2000/svg">
<path d="M11.5774 9.42712V16.8473L19.8229 9.42712H23.3068L13.9523 17.8542L23.6805 26.6169H20.1967L11.5774 18.8851V26.6169H9.1062V9.42712H11.5774ZM25.6937 21.0428C25.6937 20.7152 25.7539 20.4115 25.8745 20.1318C26.003 19.8441 26.1718 19.5924 26.3808 19.3766C26.5977 19.1608 26.8509 18.993 27.1402 18.8731C27.4295 18.7453 27.7349 18.6813 28.0564 18.6813H34.1802V16.212H26.429V13.8504H34.1802C34.5097 13.8504 34.8191 13.9144 35.1085 14.0422C35.3978 14.1621 35.6469 14.33 35.8558 14.5457C36.0728 14.7535 36.2416 15.0012 36.3621 15.2889C36.4907 15.5766 36.5551 15.8843 36.5551 16.212V26.6169H34.1802V24.4592C34.1561 24.7549 34.0758 25.0346 33.9391 25.2983C33.8025 25.5621 33.6257 25.7938 33.4087 25.9936C33.1998 26.1854 32.9587 26.3372 32.6854 26.4491C32.4122 26.561 32.1229 26.6169 31.8175 26.6169H28.0564C27.7349 26.6169 27.4295 26.557 27.1402 26.4371C26.8509 26.3093 26.5977 26.1414 26.3808 25.9336C26.1718 25.7179 26.003 25.4661 25.8745 25.1784C25.7539 24.8908 25.6937 24.5831 25.6937 24.2554V21.0428ZM28.0564 24.2554H34.1802V21.0428H28.0564V24.2554ZM48.2723 24.2554V21.2946H42.6427C42.3132 21.2946 42.0038 21.2346 41.7145 21.1147C41.4252 20.9869 41.172 20.8191 40.9551 20.6113C40.7461 20.3955 40.5773 20.1438 40.4487 19.8561C40.3282 19.5684 40.2679 19.2607 40.2679 18.9331V16.212C40.2679 15.8843 40.3282 15.5766 40.4487 15.2889C40.5773 15.0012 40.7461 14.7535 40.9551 14.5457C41.172 14.33 41.4252 14.1621 41.7145 14.0422C42.0038 13.9144 42.3132 13.8504 42.6427 13.8504H50.1529V16.212H42.6427V18.9331H48.2723C48.6018 18.9331 48.9072 18.997 49.1885 19.1249C49.4778 19.2448 49.7309 19.4125 49.9479 19.6283C50.1649 19.8361 50.3337 20.0838 50.4543 20.3716C50.5828 20.6592 50.6471 20.9669 50.6471 21.2946V24.2554C50.6471 24.5831 50.5828 24.8908 50.4543 25.1784C50.3337 25.4661 50.1649 25.7179 49.9479 25.9336C49.7309 26.1414 49.4778 26.3093 49.1885 26.4371C48.9072 26.557 48.6018 26.6169 48.2723 26.6169H40.2679V24.2554H48.2723ZM62.1112 24.2554V21.2946H56.4817C56.1519 21.2946 55.8428 21.2346 55.5535 21.1147C55.2641 20.9869 55.0108 20.8191 54.7941 20.6113C54.5852 20.3955 54.4163 20.1438 54.2875 19.8561C54.167 19.5684 54.1067 19.2607 54.1067 18.9331V16.212C54.1067 15.8843 54.167 15.5766 54.2875 15.2889C54.4163 15.0012 54.5852 14.7535 54.7941 14.5457C55.0108 14.33 55.2641 14.1621 55.5535 14.0422C55.8428 13.9144 56.1519 13.8504 56.4817 13.8504H63.9919V16.212H56.4817V18.9331H62.1112C62.4405 18.9331 62.7461 18.997 63.0276 19.1249C63.3169 19.2448 63.5697 19.4125 63.787 19.6283C64.0038 19.8361 64.1726 20.0838 64.2931 20.3716C64.422 20.6592 64.4862 20.9669 64.4862 21.2946V24.2554C64.4862 24.5831 64.422 24.8908 64.2931 25.1784C64.1726 25.4661 64.0038 25.7179 63.787 25.9336C63.5697 26.1414 63.3169 26.3093 63.0276 26.4371C62.7461 26.557 62.4405 26.6169 62.1112 26.6169H54.1067V24.2554H62.1112ZM68.1988 21.0428C68.1988 20.7152 68.259 20.4115 68.3795 20.1318C68.5084 19.8441 68.6773 19.5924 68.8861 19.3766C69.1029 19.1608 69.3562 18.993 69.6455 18.8731C69.9349 18.7453 70.24 18.6813 70.5615 18.6813H76.6856V16.212H68.9345V13.8504H76.6856C77.015 13.8504 77.3246 13.9144 77.6139 14.0422C77.9033 14.1621 78.1521 14.33 78.361 14.5457C78.5782 14.7535 78.7471 15.0012 78.8676 15.2889C78.996 15.5766 79.0601 15.8843 79.0601 16.212V26.6169H76.6856V24.4592C76.6614 24.7549 76.5809 25.0346 76.4442 25.2983C76.3079 25.5621 76.1311 25.7938 75.9139 25.9936C75.705 26.1854 75.4641 26.3372 75.1905 26.4491C74.9175 26.561 74.6281 26.6169 74.323 26.6169H70.5615C70.24 26.6169 69.9349 26.557 69.6455 26.4371C69.3562 26.3093 69.1029 26.1414 68.8861 25.9336C68.6773 25.7179 68.5084 25.4661 68.3795 25.1784C68.259 24.8908 68.1988 24.5831 68.1988 24.2554V21.0428ZM70.5615 24.2554H76.6856V21.0428H70.5615V24.2554Z" fill="white"/>
<mask id="path-2-outside-1" maskUnits="userSpaceOnUse" x="0.0109863" y="0" width="88" height="36" fill="black">
<rect fill="white" x="0.0109863" width="88" height="36"/>
<path d="M3.01099 15.8436V32.018C3.01099 32.5604 3.45312 33 3.99852 33H84.0125C84.5581 33 85 32.5604 85 32.018V3.98204C85 3.4397 84.5581 3.00004 84.0125 3.00004L3.99851 3C3.45311 3 3.01099 3.45766 3.01099 4"/>
</mask>
<path d="M84.0125 3.00004V6.00004V3.00004ZM3.99851 3L3.99851 0H3.99851V3ZM0.0109863 15.8436V32.018H6.01099V15.8436H0.0109863ZM0.0109863 32.018C0.0109863 34.2331 1.81221 36 3.99852 36V30C5.09403 30 6.01099 30.8876 6.01099 32.018H0.0109863ZM3.99852 36H84.0125V30H3.99852V36ZM84.0125 36C86.1994 36 88 34.2327 88 32.018H82C82 30.888 82.9167 30 84.0125 30V36ZM88 32.018V3.98204H82V32.018H88ZM88 3.98204C88 1.76738 86.1994 3.93391e-05 84.0125 3.93391e-05V6.00004C82.9167 6.00004 82 5.11201 82 3.98204H88ZM84.0125 3.93391e-05L3.99851 0L3.99851 6L84.0125 6.00004V3.93391e-05ZM3.99851 0C1.74165 0 0.0109863 1.85594 0.0109863 4H6.01099C6.01099 5.05938 5.16457 6 3.99851 6V0Z" fill="white" mask="url(#path-2-outside-1)"/>
<path d="M3 11H0V14H3V11Z" fill="white"/>
</svg>
